<?xml version="1.0" encoding="UTF-8"?>
<!DOCTYPE svg PUBLIC "-//W3C//DTD SVG 1.1//EN" "http://www.w3.org/Graphics/SVG/1.1/DTD/svg11.dtd">
<!-- Creator: CorelDRAW 2019 (64-Bit Evaluation Version) -->
<svg xmlns="http://www.w3.org/2000/svg" xml:space="preserve" width="701.04mm" height="701.04mm" version="1.1" style="shape-rendering:geometricPrecision; text-rendering:geometricPrecision; image-rendering:optimizeQuality; fill-rule:evenodd; clip-rule:evenodd"
viewBox="0 0 90964.04 90964.04"
 xmlns:xlink="http://www.w3.org/1999/xlink">
 <defs>
  <style type="text/css">
   <![CDATA[
    .fil0 {fill:none}
    .fil8 {fill:#262F36}
    .fil2 {fill:#353659}
    .fil9 {fill:#45515A}
    .fil10 {fill:#8A80EE}
    .fil7 {fill:#C1B2FF}
    .fil12 {fill:#C56146}
    .fil6 {fill:#E1DDF8}
    .fil14 {fill:#E55A4D}
    .fil16 {fill:#EB4738}
    .fil5 {fill:#F2EFFF}
    .fil1 {fill:#FBC7B1}
    .fil11 {fill:#FC9171}
    .fil3 {fill:#FF6A51}
    .fil15 {fill:#FF964A}
    .fil4 {fill:#FFBF61}
    .fil13 {fill:white}
   ]]>
  </style>
 </defs>
 <g id="Layer_x0020_1">
  <metadata id="CorelCorpID_0Corel-Layer"/>
  <rect class="fil0" width="90964.04" height="90964.04"/>
  <g id="_2736624011088">
   <path class="fil1" d="M62686.07 61122.49c-1124.7,-1854.15 -4260.29,-7200.61 -4760.15,-9945.83 -611.55,-3355.54 2549.66,-7578.77 3531.08,-3522.47 234.86,970.33 450.42,1973.96 624.83,2971.12 558.5,3192.55 1697.34,6309.74 2485.58,8225.7 65.95,175.03 292.04,455.04 784.13,970.89 824.88,865.28 1924.37,1703.88 2717.66,2116.32 185.89,96.56 -2221.46,647.72 -4065.28,241.68 -441.22,-97.51 -1307.33,-668.76 -1749.51,-588.66 -174.4,31.57 480.63,-339.19 431.66,-468.76z"/>
   <path class="fil2" d="M68375.43 62196.85c115.35,-22.89 172.11,151.98 56.3,174.87 -1057.86,209.17 -2129.45,173.03 -3196.47,58.58 -1096.74,-117.64 -2187.58,-273.73 -3288.92,-352 -116.73,-8.27 -125.42,-192.26 -7.79,-183.57 1049.18,74.6 2090.08,214.68 3134.67,334.16 1098.6,125.41 2210.94,183.55 3302.21,-32.05z"/>
   <path class="fil2" d="M62129.89 60190.67c1720.72,966.18 1874.02,1989.25 1874.02,1989.25l-1895.5 -181.28c-457.75,-577.22 21.47,-1807.95 21.47,-1807.97z"/>
   <path class="fil2" d="M66959.17 61092.29c330.03,128.64 620.23,347.91 1206.61,598.29 459.62,195.91 725.98,613.39 -430.28,703.56 -1156.73,89.73 -2377.56,-78.27 -2377.56,-78.27 0.03,-0.01 1035.89,-1442.83 1601.23,-1223.58z"/>
   <path class="fil1" d="M48767.28 42789.47c0,0 9994.48,954.41 12094.63,3287.78l-3675.26 3252.25c0,0 -6927.6,4.65 -7768.03,-301.86 -839.92,-306.52 -2110.22,-6002.3 -651.35,-6238.17z"/>
   <path class="fil3" d="M49441.07 41323.78c0,0 1215.79,962.76 2547.83,1426.04 1332.1,463.22 2155.54,721.01 1847.48,772.37 -1737.15,289.76 -1970.62,1370.27 -1970.62,1370.27l-2280.04 -608.09 -1876.28 -2581.18 479.69 -1167.27 1251.94 787.85z"/>
   <path class="fil4" d="M50715.93 38758.55c1203.42,1994.53 2655.38,2721.65 3765.41,3643.79 791.48,656.97 4919.9,3588.62 4919.9,3588.62l2490.17 -1069.59c0,0 -4606.35,-3959.66 -5906.81,-5530.29 -1089.86,-1316.62 -2750.62,-4563.12 -4000.28,-6196.43 -685.66,-896.28 -3380.02,-1622.64 -3380.02,-1622.64 0.05,-0.01 1629.14,6387.31 2111.63,7186.53z"/>
   <path class="fil5" d="M36760.48 62766.73l-371.23 3870.73c0,0 7331.78,1055.12 10632.16,177.17 599.2,-159.31 992.4,-823.03 933.35,-1555.44l-399.14 -4955.19c-60.87,-758.55 -588.68,-1363.49 -1229.99,-1407.94 -2141.35,-148.32 -6839.24,-304.77 -9615.49,878.11l50.36 2992.56z"/>
   <path class="fil5" d="M87375.71 51914.42c-1518.33,1957.89 -5416.1,4551.23 -8983.34,5167.96 -3813.06,659.68 -30504.45,3330.35 -39810.96,4252.54 -2118.45,210.54 -4266.23,44.4 -6398.88,-492.54l-20141.18 -5074.73c-685.34,-172.85 -1339.04,-581.51 -1907.57,-1181.75 -438.64,-462.98 -826.92,-1039.33 -1140.07,-1709.01 -512.07,-1095.81 -886.43,-2156.4 -446.89,-2209.37 0,0 61495.28,-7404.23 64997.54,-7463.34 3148.86,-53.87 6441.91,1005.91 9440.62,3080.2 334.65,231.48 666.04,475.56 993.79,732.68 0.03,0 231.61,98.19 585,271.9 1087.64,536.38 3323.72,1791.99 3463.33,3112.34 42.6,401.7 -198.66,928.99 -651.37,1513.12z"/>
   <path class="fil3" d="M25593.88 48664.96l-4274.66 -1487.29c-2654.01,-923.41 -5137.36,-2922.82 -7162.68,-5766.77l-6327.79 -8885.58c-253.63,-356.21 -593.24,-536.88 -924.71,-492.2l-1774.32 239.35c-382.55,51.55 -591.83,642.68 -415.74,1174.08l5645.21 17035.7 15234.69 -1817.3z"/>
   <path class="fil6" d="M46975.2 46109.7l-7759.35 909.67c0,0 -4209.47,-4540.17 -5805.64,-6996.27 -201.41,-308.92 -360.71,-584.46 -465.07,-814.19 -191.34,-420.33 -417.93,-1059.61 -654.13,-1801.89 -852.31,-2681.59 -1841.53,-6717.25 -1841.53,-6717.25 -19.22,-63.54 8.24,-130.64 52.64,-134.71l717.3 -67.2c276.02,-26.05 551.58,179.44 713.16,534.37 607.44,1330.28 2116.18,4625.2 2922.28,6277.68 266.41,548.61 455.46,915.36 507.64,969.33 22.9,22.91 133.65,104.54 315.84,233.22 1868.12,1314.1 11296.82,7607.25 11296.84,7607.25z"/>
   <path class="fil7" d="M84563.32 47289.14l-899.04 836.35 -249.44 231.96 -1255.6 1166.82c-97.07,90.23 -214.73,144.89 -341.08,159.86 -58.08,7.59 -117.62,6.83 -178.06,-2.93l-315.84 -51.1 -2838.97 -456.34c-301.62,-48.18 -558.91,-338.35 -617.04,-694.39l-103.91 -639.26c-27.91,-170.5 62.7,-320.09 203.69,-336.48l2317.13 -272.33 154.28 -18.31 204.6 -83.94 1192.47 -488.56 263.2 -107.9 761.23 -311.82 123.59 63.44c335.09,231.54 666.48,475.58 993.76,732.74 0.03,-0.01 232.08,98.19 585.03,272.18z"/>
   <polygon class="fil5" points="80004.61,46584.19 81658.43,50402.56 82068.61,50229 80346.08,46479.43 "/>
   <polygon class="fil5" points="81403.93,46170.48 83686.27,48652.9 83884.02,48348.93 81592.97,46017.1 "/>
   <path class="fil7" d="M38767.73 54704.86l-1023.96 103.51c-187.72,18.89 -355.26,-106.98 -374.94,-281.21l-206.42 -1843.27c-19.2,-174.26 116.7,-330.85 303.91,-349.76l1024.45 -103.52c187.25,-18.94 354.75,107 374.44,281.22l206.45 1843.26c19.72,174.21 -116.73,330.83 -303.94,349.77z"/>
   <path class="fil7" d="M41868.97 54391.47l-1023.96 103.51c-187.25,18.89 -355.25,-106.97 -374.48,-281.23l-206.88 -1843.25c-19.2,-174.26 116.72,-330.84 303.93,-349.74l1024.49 -103.51c187.2,-18.94 354.71,106.98 374.4,281.21l206.49 1843.25c19.67,174.21 -116.31,330.84 -303.99,349.77z"/>
   <path class="fil7" d="M44970.73 54078.06l-1024.47 103.48c-187.2,18.96 -355.23,-106.91 -374.46,-281.17l-206.43 -1843.23c-19.67,-174.26 116.26,-330.85 303.93,-349.81l1024.02 -103.52c187.2,-18.89 355.18,107 374.41,281.27l206.48 1843.21c19.67,174.26 -116.3,330.86 -303.47,349.77z"/>
   <path class="fil7" d="M48071.97 53764.68l-1024.47 103.51c-187.2,18.96 -354.77,-106.97 -374.45,-281.19l-206.44 -1843.29c-19.67,-174.21 116.27,-330.79 303.94,-349.74l1024.01 -103.49c187.67,-18.93 355.19,106.97 374.88,281.25l206.48 1843.19c19.2,174.28 -116.75,330.88 -303.94,349.77z"/>
   <path class="fil7" d="M51173.22 53451.32l-1024.42 103.48c-187.25,18.96 -354.8,-106.96 -374.49,-281.18l-206.4 -1843.26c-19.72,-174.25 116.69,-330.83 303.9,-349.77l1023.99 -103.51c187.72,-18.94 355.21,106.98 374.89,281.21l206.47 1843.25c19.67,174.26 -116.74,330.84 -303.94,349.78z"/>
   <path class="fil7" d="M54274.46 53137.93l-1023.96 103.49c-187.72,18.92 -355.26,-106.96 -374.94,-281.18l-206.42 -1843.27c-19.2,-174.25 116.7,-330.84 303.91,-349.74l1024.45 -103.52c187.25,-18.96 354.75,107 374.44,281.22l206.45 1843.25c19.72,174.21 -116.27,330.81 -303.94,349.76z"/>
   <path class="fil7" d="M57375.7 52824.56l-1023.96 103.51c-187.25,18.89 -355.25,-106.97 -374.48,-281.25l-206.42 -1843.22c-19.67,-174.26 116.25,-330.84 303.46,-349.76l1024.49 -103.49c187.2,-18.94 355.18,106.93 374.4,281.19l206.49 1843.25c19.67,174.21 -116.31,330.83 -303.99,349.77z"/>
   <path class="fil7" d="M60477.47 52511.14l-1024.47 103.48c-187.2,18.94 -355.23,-106.91 -374.46,-281.18l-206.43 -1843.26c-19.67,-174.21 116.26,-330.81 303.93,-349.76l1024.02 -103.52c187.2,-18.89 355.18,107 374.41,281.26l206.95 1843.21c19.2,174.26 -116.77,330.86 -303.94,349.77z"/>
   <path class="fil6" d="M87375.71 51914.42c-1518.33,1957.89 -5416.1,4551.23 -8983.34,5167.96 -3813.06,659.68 -30504.45,3330.35 -39810.96,4252.54 -2118.45,210.54 -4266.23,44.4 -6398.88,-492.54l-20141.18 -5074.73c-685.34,-172.85 -1339.04,-581.51 -1907.57,-1181.75l7648.33 -1750.3c0,0 3642.61,4682.37 19161.02,5392.52 15518.64,710.09 46132.02,-2548.16 50431.21,-6312.83 0.51,-0.43 0.92,-0.87 1.38,-0.87z"/>
   <path class="fil3" d="M17781.92 52835.78l-12524.05 4153.15c-49.76,16.48 -100.76,26.38 -152.44,29.45l-2113.05 126.65c-60.21,3.61 -84.37,-121.04 -29.77,-153.35l7004.86 -4139.25c37.67,-22.31 77.09,-38.17 117.83,-47.52 754.93,-173.22 8191.02,-1835.1 7696.61,30.86z"/>
   <path class="fil7" d="M57790 55373.86c411.51,-23.07 614.26,489.48 265,670.8 -6037.7,3135.95 -28595.63,14805.96 -30238.86,14975.78 -1898.6,196.37 -6790.21,-839.05 -6790.21,-839.05 0,0 14060.11,-10183.6 15039.69,-10965.49 303.5,-242.03 -119.47,-1198.58 -429.36,-1850.28 -173.48,-365.12 71.86,-752.9 488.88,-776.29l21664.87 -1215.47z"/>
   <path class="fil3" d="M28160.04 70903.24c0,0 -1827.07,359.35 -2843.68,-1036.79 -804.56,-1104.56 -4035.02,-5679.76 -5347.43,-7540.06 -350.72,-497.13 -877.14,-768.56 -1412.65,-729.64l-1369.53 99.78c0,0 3653.06,8927.5 3896.63,9382.96 570.86,1067.93 3707.22,1454.26 7076.66,-176.25z"/>
   <path class="fil1" d="M48966.42 59286.32c464.15,-2118.16 1879.49,-8152.64 3410.19,-10485.73 1870.87,-2851.84 7072.24,-3731.12 4986.27,-116.55 -498.9,864.67 -1034.5,1740.42 -1596.17,2582.89 -1796.65,2697.23 -3121.41,5740.09 -3871.2,7671.46 -72.77,172.34 -102.08,531.08 -101.62,1243.84 0.95,1195.67 219.27,2561.16 509.49,3406.64 68.23,198.19 -2055.76,-1062.44 -3111.32,-2627.95 -252.66,-374.9 -485.68,-1385.84 -861.03,-1632.58 -148.27,-97.26 581.8,85.65 635.4,-42.04z"/>
   <path class="fil2" d="M52346.89 63987.57c98.87,62.7 19.66,228.42 -79.67,165.26 -910.87,-578.15 -1662.09,-1342.58 -2356.04,-2161.5 -713.16,-841.36 -1395.68,-1706.68 -2139.06,-2522.75 -79.15,-86.57 41.2,-225.62 120.85,-138.37 708.14,777.6 1365.91,1596.4 2039.72,2403.42 709.09,848.2 1474.87,1657.5 2414.2,2253.95z"/>
   <path class="fil2" d="M49206.25 58227.97c580.01,1886.01 -14.2,2732.97 -14.2,2732.97l-1247.78 -1438.27c66.37,-733.73 1261.97,-1294.69 1261.98,-1294.7z"/>
   <path class="fil2" d="M52082.29 62210.58c150.63,320.87 209.65,679.78 461.87,1265.69 197.76,458.65 102.53,944.79 -796.95,212.85 -899.91,-732.87 -1668.49,-1695.96 -1668.49,-1695.96 0.04,0 1745.85,-330.96 2003.57,217.42z"/>
   <path class="fil1" d="M45619.8 43346.31c0,0 9974.8,1047.16 12075.42,3380.54l-3655.57 3159.46c0,0 -6928.07,4.65 -7768.03,-301.86 -839.94,-306.52 -2110.69,-6002.3 -651.82,-6238.14z"/>
   <path class="fil3" d="M44026.38 40911.23c0,-0.05 -3654.72,3792.36 -2473.26,6755.52 1181.47,2963.09 5615.22,2657.74 6691.85,2406.3 1076.64,-251.41 359.33,-5180.58 3881.72,-5700.63 494.41,-73 -3144.75,-1631.06 -3364.01,-2669.19 -219.25,-1038.15 -1303.2,-948.13 -1303.2,-948.13l-3433.09 156.14z"/>
   <path class="fil8" d="M46561.82 27722.62c0,0 -1680.87,1850.1 -5283.81,-66.73 -3602.94,-1916.87 -5183.1,2808.75 -5183.1,2808.75 0,-0.01 315.38,1566.66 1027.65,2179.17 0,-0.04 902.22,-431.75 1396.59,-370.96 0,-0.01 -919.62,284.58 -1141.63,843.58 0.05,-0.03 675.64,1642.77 2351.46,1989.79 1675.38,347.06 7332.24,-3003.47 7332.24,-3003.47l2135.9 -2525.26 -2635.3 -1854.87z"/>
   <path class="fil8" d="M51589.32 27297.41c0,0 573.53,-1842.3 -1008.45,-2275.74 -1463.4,-400.96 1008.42,2275.75 1008.45,2275.74z"/>
   <path class="fil9" d="M36486.75 31577.27c686.17,-1483.16 2186.2,-2522.91 3824.96,-2602.42 899.96,-43.69 1783.84,169.05 2664.11,319.56 736.08,125.71 1511.49,239.67 2216.42,-76.58 714.55,-320.86 1239.13,-958.9 1506.91,-1685.26 16.04,-44.31 -50.36,-76.35 -66.84,-31.67 -280.12,759.93 -849.12,1429.69 -1623.64,1711.71 -850.93,309.88 -1817.26,47.01 -2674.63,-109.14 -802.89,-146.31 -1626.84,-281.74 -2443,-162.91 -687.95,100.22 -1348.07,369.36 -1919.35,764.48 -671.98,464.81 -1208.92,1099.2 -1551.78,1840.57 -20.14,43.08 46.7,74.88 66.84,31.67l0 -0.03z"/>
   <path class="fil10" d="M41566.9 31644.07c0,0 -1614.98,5882.79 -817.14,7389.61 797.87,1506.78 3909.19,1333.51 4492.82,643.5 583.67,-690.02 -597.81,-7347.89 -597.81,-7347.89l-3077.87 -685.21z"/>
   <path class="fil4" d="M51821.41 37143.77c-291.63,1357.82 -1197.06,3648.49 -1515.2,4433.72 -69.58,171.55 -224.3,290.21 -407.86,313.59 -1333.86,169.76 -6719.3,745.41 -6609.91,-1047.92 0.04,-0.01 1081.22,-4386.29 326.39,-7219.54 -620.71,-2330.61 3204.7,-2491.3 4674.99,-2149.5 3101.75,720.95 3944.89,3744.48 3531.59,5669.64z"/>
   <path class="fil10" d="M50124.95 32092.14c-67.25,14.52 2083.22,3778.02 891.7,7641.26l0.03 0c0,0 1982.94,-3786.92 -112.17,-7325.6 0.01,-0.04 -528.24,-370 -779.55,-315.66z"/>
   <path class="fil1" d="M47468.64 30965.64c830.39,-1580.44 1098.12,-2460.03 1099.5,-2463.56l526 434.68 108.45 89.51 941.16 777.76c0,0 -20.63,73.74 -52.21,193.12 -45.27,173.95 -113.98,444.98 -173.95,726.31 -76.89,361.67 -140.53,740.23 -124.5,949.24 23.81,304.36 447.22,1178.48 -883.47,863.86 -1388.8,-328.5 -1652.47,-1169.18 -1440.98,-1570.92z"/>
   <path class="fil11" d="M49115.15 29054.59c0,-0.05 36.16,52.77 95.67,137.14 193.18,276.02 632.16,890.68 849.12,1101.48 -55.8,209.01 -140.98,534.46 -217.89,871.69 -246.69,-229.8 -996.06,-1031.68 -736.52,-2073.28 3.23,-12.31 5.96,-24.54 9.61,-37.03z"/>
   <path class="fil1" d="M47707.11 28539.37c-1366.82,-4163.68 2429.28,-3460.56 3432.65,-2381.66 1003.86,1078.93 1757.76,4284.54 -197.73,4456.24 -1955.94,171.71 -3234.93,-2074.56 -3234.92,-2074.59z"/>
   <path class="fil11" d="M49946.92 30530.64c-611.11,-211.75 -1150.82,-567.66 -1586.6,-1045.49 -22.88,-25.07 17.4,-59.18 39.82,-34.15 430.34,471.47 961.74,821.21 1564.6,1030.12 32.04,11.07 14.18,60.66 -17.82,49.53z"/>
   <path class="fil12" d="M51118.27 28218.14c87.91,181.77 29.75,191.71 -129.55,277.04 -29.73,15.97 -48.98,-33.14 -19.23,-48.98 42.6,-22.9 131.38,-88.21 135.96,-137.46 3.66,-45.49 -76.44,-143.04 -102.55,-186.16 -49.88,-83.81 -105.27,-164.15 -155.63,-247.87 -74.6,-124.46 -158.38,-261.51 -167.53,-409.82 -12.79,-212.01 158.37,-352.88 360.24,-343.74 33.89,1.54 25.63,53.56 -7.79,52.06 -411.03,-18.68 -295.7,398.38 -177.14,609.76 82.88,147.2 189.96,282.93 263.21,435.18z"/>
   <path class="fil12" d="M49637.95 27442.22c-41.2,-82.64 26.96,-235.52 169.32,-306.47 142.85,-70.95 305.78,-33.01 346.98,49.66 41.2,82.65 -65.46,157.98 -208.28,228.88 -142.36,70.94 -266.87,110.64 -308.01,27.94z"/>
   <path class="fil12" d="M50731.01 26969.43c-27.44,-88.16 64.09,-228.18 216.51,-275.32 152.01,-47.15 306.69,16.48 334.16,104.64 27.5,88.18 -90.18,145.43 -242.15,192.53 -151.97,47.1 -281.52,66.37 -308.52,-21.85z"/>
   <path class="fil8" d="M50089.73 27991.13c-36.15,-101.44 -7.81,-204.18 63.14,-229.5 70.95,-25.35 157.46,36.44 193.62,137.88 36.67,101.4 8.24,204.2 -62.71,229.51 -70.92,25.3 -157.91,-36.38 -194.05,-137.89z"/>
   <path class="fil8" d="M51148.5 27603.57c-36.15,-101.4 -8.27,-204.16 62.69,-229.47 71,-25.34 157.93,36.44 194.09,137.88 36.19,101.43 8.24,204.2 -62.71,229.51 -70.94,25.26 -157.93,-36.4 -194.06,-137.92z"/>
   <path class="fil8" d="M51478.55 28855.56c-23.38,79.55 -60.45,177.61 -112.19,240.68 -72.27,88.12 -180.35,160.03 -342.85,170.01 -179.87,11.17 -311.27,-45.13 -405.56,-121.76 -56.3,-45.4 -108.02,-120.7 -146.94,-187.77 -14.62,-25.72 -13.27,-54.29 -0.45,-76.49 14.68,-25.81 43.03,-43.07 76.44,-39.13 8.27,1.03 16.93,2.1 25.64,3.02 3.69,0.36 7.77,0.92 11.9,1.38 12.86,1.57 26.09,3.06 39.37,4.07 5.51,0.48 10.98,1.1 16.48,1.69 43.99,3.69 92.46,6.68 144.64,7.64 16.96,0.32 34.33,0.51 51.73,0.42 8.69,0.21 17.39,0.18 26.09,-0.36 9.17,-0.04 17.85,-0.27 27.46,-0.45 8.75,-0.31 17.85,-0.47 27,-1.01 9.2,-0.22 18.32,-0.73 27.92,-1.47 13.3,-0.66 26.56,-1.51 39.84,-2.43 10.55,-1.01 21.06,-1.69 32.04,-2.92 24.29,-2.43 49.44,-4.85 74.62,-8.56 8.73,-1.17 18.31,-2.52 27,-3.98 33.44,-5.02 67.29,-11.12 101.16,-18.36 14.68,-3.24 29.3,-6.36 43.95,-10.16 11.92,-2.76 24.26,-5.99 36.62,-9.29 5.07,-1.3 9.61,-2.66 14.65,-4.02 11.02,-2.98 21.98,-6.28 32.96,-9.85 14.68,-4.17 29.3,-9.11 43.95,-14.05 28.4,-9.73 55.39,0 72.78,19.14 14.69,16.35 21.51,39.59 13.77,64.03z"/>
   <path class="fil13" d="M51464.79 28791.5c-136.41,105.15 -349.73,230.64 -564.88,205.33 -171.16,-19.84 -320.43,-69.54 -429.36,-116.6 14.68,-25.81 43.03,-43.07 76.44,-39.13 8.27,1.03 16.93,2.1 25.64,3.02 3.69,0.36 7.77,0.92 11.9,1.38 12.86,1.57 26.09,3.06 39.37,4.07 5.51,0.48 10.98,1.1 16.48,1.69 43.99,3.69 92.46,6.68 144.64,7.64 16.96,0.32 34.33,0.78 51.73,0.42 8.69,0.21 17.39,0.18 26.09,-0.36 9.17,-0.04 18.31,0.09 27.46,-0.45 8.75,-0.31 17.85,-0.47 27,-1.01 9.2,-0.22 18.32,-0.73 27.92,-1.47 13.3,-0.66 26.56,-1.51 39.84,-2.43 10.55,-1.01 21.06,-1.69 32.04,-2.92 24.29,-2.43 49.44,-4.85 74.62,-8.56 8.73,-1.17 18.31,-2.52 27,-3.98 33.44,-5.02 67.29,-11.12 101.16,-18.36 14.68,-3.24 29.3,-6.36 43.95,-10.16 12.39,-3.06 24.26,-5.99 36.62,-9.29 5.07,-1.3 9.61,-2.66 14.65,-4.02 11.02,-2.98 21.98,-6.28 32.96,-9.85 14.68,-4.17 29.3,-9.11 43.95,-14.05 28.4,-9.73 55.39,0 72.79,19.11z"/>
   <path class="fil14" d="M51366.39 29096.21c-72.3,88.16 -180.37,160.07 -342.88,170.05 -179.87,11.17 -311.27,-45.13 -405.56,-121.76 76.92,-39.94 225.67,-98.96 399.15,-77.94 0.04,0 241.7,-113.43 349.29,29.66z"/>
   <path class="fil4" d="M44072.16 34036.45c-1999.46,-1775 -3910.14,-3853.46 -5099.38,-5747.59 -546.99,-870.95 -2029.2,-5168.95 -2029.2,-5168.95l2087.81 -1400.95c0,0 1780.17,3671.88 3044.02,5272.37 1058.78,1341.64 3372.7,3589.31 5393.21,3974.32l139.62 4512.04c0,-0.05 -2838.05,-821.52 -3536.08,-1441.24z"/>
   <path class="fil15" d="M39031.39 21718.96c-17.87,-71.11 -100.72,-92.74 -228.42,-71.27 -36.63,6.19 -77.37,15.93 -121.31,29.66 -206.9,61.8 -484.75,200.23 -780.47,399.71 -251.71,169.19 -475.59,353.97 -643.59,523.53 -70.47,71.64 -131.38,140.4 -180.36,204.3 -28.83,38.2 -54.02,74.93 -74.61,108.94 -26.54,45.34 -45.78,86.74 -55.39,123.14 -4.55,17.21 -6.86,33.63 -7.32,48.52 -0.43,12.37 0.45,24.12 3.2,34.33 16.96,66.4 90.63,89.08 204.16,74.34 77.85,-10.77 175.31,-39.28 285.63,-83.86 0.95,-0.19 2.75,-0.78 3.66,-1.47 183.6,-75.09 404.2,-194.63 635.35,-350.82 123.62,-83.51 240.79,-170.24 347.9,-256.66 151.54,-123.02 283.8,-246.13 385.43,-359.48 72.78,-80.55 130.46,-156.08 169.82,-223.05 48.07,-81.62 68.65,-150.01 56.31,-199.86z"/>
   <path class="fil1" d="M38805.27 22141.86c-125.43,-187.29 -116.29,-306.21 -123.61,-464.51 -5.03,-106.74 -17.4,-231.43 -84.22,-406.56 -124.94,-329.37 -611.55,-1469.06 -755.75,-1805.46 -26.55,-62.89 -110.32,-76.49 -155.18,-24.99 -140.03,159.85 -164.34,490.66 -110.32,728.97 16.02,88.18 -6.86,254.68 -50.36,245.08 -433.45,-562.08 -1253.77,-1563.69 -1408.49,-1445.56 -140.51,107.42 348.8,864.72 708.6,1362.15l-26.52 13.39c-500.81,-563.48 -1123.8,-1456.56 -1290.43,-1312.04 -180.79,157.63 265.51,1032.74 739.73,1590.56l-27.91 14.08c-2.74,-3.19 -5.5,-6.53 -8.25,-9.73 -457.29,-525.99 -1025.81,-1142.23 -1215.32,-1003.3 -93.36,68.63 289.76,710.15 676.55,1289.94 114,203.7 49.9,216.1 -21.97,192.06 -34.32,-17.66 -68.2,-34.19 -101.62,-50.03 -0.44,-0.17 -0.45,-0.13 -0.45,-0.13 -334.15,-157.93 -483.83,-150.61 -529.61,-39.91 -30.66,73.75 508.1,344.87 1026.28,965.8 256.36,306.96 632.61,521.84 1030.85,823.22 111.28,82.9 228.41,182.18 355.67,305.41 0.01,0.01 0,0.05 0,0.05 184.02,-75.01 406.02,-195.1 639.01,-352.34 123.62,-83.51 240.79,-170.24 347.9,-256.66 151.54,-123.02 283.8,-246.13 385.44,-359.49z"/>
   <path class="fil10" d="M46618.16 30706.36c0,0 446.72,1408.75 -112.64,3433.42 -701.27,2535.88 -2047.99,3623.37 -2903.51,3687.18 -855.53,63.83 -248.57,931.61 -248.57,931.61 0.03,-0.01 3166.26,-427.77 4001.66,-4041.25 583.19,-2521.93 113.52,-3751.67 113.52,-3751.67l-850.46 -259.29z"/>
   <path class="fil8" d="M50934.27 25362.33c0,0 31.56,3237.45 -2642.62,2767.71 0.01,-0.01 247.18,866.8 -92,1319.92 -339.18,453.11 -1762.34,-1228.46 -1762.34,-1228.46 0,0 -1015.29,-1220.64 -208.27,-2609.04 807.48,-1388.41 3460.59,-1714.31 4705.23,-250.12z"/>
   <path class="fil1" d="M48077.89 28882.24c-334.16,-219.9 -463.71,-613.56 -288.85,-879.15 174.9,-265.64 587.3,-302.66 921.92,-82.72 334.2,219.95 463.7,613.58 288.84,879.21 -174.83,265.57 -587.29,302.62 -921.9,82.65z"/>
   <path class="fil12" d="M47962.54 28844.39c-173.48,-127.46 -243.53,-325.6 -276.03,-530.94 -5.03,-33.58 47.15,-39.56 52.19,-6.14 30.69,191.78 92.92,377.19 256.8,496.15 205.53,149.48 488.88,221.23 738.8,202.69 33.92,-2.49 40.29,49.81 6.41,52.33 -263.2,19.44 -562.57,-55.67 -778.17,-214.1z"/>
   <path class="fil12" d="M48510.47 28291.62c-24.72,-22.81 8.23,-63.9 33.41,-40.89 43.07,39.6 108.94,102.64 108.48,166.85 -0.43,31.45 -21.05,54.25 -36.15,79.66 -37.5,62.06 -43.49,123.13 -14.2,191.1 13.77,31.21 -35.25,50.45 -48.98,19.36 -22.84,-52.63 -30.67,-107.42 -16.02,-163.69 6.89,-27.61 24.72,-48.75 33.43,-74.48 27.95,-82.34 -2.75,-125.75 -59.96,-177.92z"/>
   <path class="fil12" d="M48764.56 28008.28c-43.05,-49.23 -95.25,-86.26 -155.23,-111.89 -31.56,-13.35 -10.07,-61.39 21.51,-48.06 68.21,29.25 127.26,72.78 176.23,128.85 22.01,25.54 -20.59,56.5 -42.52,31.1z"/>
   <path class="fil9" d="M48212.05 29057.06c-108.97,274.49 -337.4,371.7 -623.04,348.3 -277.39,-22.73 -417.93,-170.55 -553.42,-390.37 -174.35,-283.08 -334.16,-577.27 -568.98,-816.16 -32.96,-33.58 -91.56,11.48 -58.13,45.36 204.64,208.19 352,458.39 502.16,706.62 110.34,181.7 210.55,387.85 415.17,477.53 366.24,160.53 806.11,30.4 954.41,-342.94 17.43,-44.25 -50.8,-72.46 -68.2,-28.29l0.04 -0.05z"/>
   <path class="fil13" d="M46532.53 37166.02c522.75,358.52 1093.57,695.22 1750.43,554.28 46.24,-9.97 36.16,-83.13 -10.52,-73.1 -640.81,137.5 -1187.41,-191.7 -1695.05,-539.82 -39.34,-26.89 -84.22,31.78 -44.86,58.69l0 -0.04z"/>
   <path class="fil13" d="M49400.8 32709.27c-52.17,364.76 -104.39,731.94 -90.19,1101.43 14.69,399.7 180.81,755.28 222.47,1147.3 43.53,408.35 -115.81,802.89 -113.98,1209.34 1.83,336.57 162.49,589.07 259.99,900.62 151.09,482.37 -185.84,846.01 -332.78,1274.97 -130.9,381.33 -96.12,738.39 -111.23,1131.6 -16.01,410.47 -259.08,764.72 -447.68,1116.5 -214.67,399.35 -428.91,798.73 -643.13,1198.07 -22.38,41.91 45.78,69.76 68.2,28.23 214.28,-399.39 428.92,-798.67 643.15,-1198.06 165.71,-308.3 387.71,-627.63 439.43,-980.59 63.63,-432.31 -27.46,-838.6 119.48,-1267.52 119.51,-350.2 389.54,-668.81 384.51,-1053.28 -4.07,-310.58 -204.61,-573.83 -272.81,-868.95 -100.24,-433.83 75.52,-856.26 86.51,-1289.33 10.08,-382.69 -157.93,-727.74 -208.73,-1101.68 -59.95,-445.87 6.86,-898.01 70.48,-1339.55 6.45,-47.06 -66.82,-56.17 -73.7,-9.07l0.03 -0.04z"/>
   <path class="fil11" d="M51608.52 50148.07c917.36,-1314.21 2427.43,-2151.29 4027.74,-2233.81 34.8,-1.8 35.23,-56.08 0,-54.29 -1620.42,83.52 -3145.67,930 -4074.44,2260.72 -20.14,28.69 27,55.85 46.69,27.38l0.01 0z"/>
   <path class="fil11" d="M52070.4 44422.33c912.31,274.9 1827.78,536.96 2747.4,786.16 33.89,9.13 48.06,-43.22 14.65,-52.33 -919.59,-249.25 -1835.58,-511.3 -2747.42,-786.18 -33.37,-10.12 -48.06,42.29 -14.64,52.36l0.01 -0.01z"/>
   <path class="fil13" d="M44041.94 42667.63c-46.71,408.94 -152.46,805.52 -320.46,1181.43 -133.65,297.57 -366.65,557.46 -476.97,861.67 -37.08,102 -53.56,214.42 -28.39,321.48 30.23,130.21 108.49,164.47 187.68,252.4 136.45,152.16 137.33,237.17 56.31,398.79 -22.85,46.05 -48.53,90.78 -69.12,138.06 -29.29,67.6 -82.86,185.94 -33.43,259.17 40.29,60.45 48.98,28.34 113.07,41.52 17.4,3.52 43.03,-22.29 59.96,-22.84 145.61,-4.67 227.05,26.73 303.94,140.43 73.71,108.92 76,246.45 74.62,372.83 -2.24,265.66 -6.41,495.89 173.95,709.48 383.62,454.63 1100.42,520.55 1651.09,566.79 872.95,73.35 1764.63,22.56 2602.32,322.34 33,11.79 47.14,-40.64 14.18,-52.37 -666.45,-238.58 -1370.96,-258.43 -2070.85,-291.08 -650.88,-30.39 -1478.54,-25.08 -2017.31,-449.82 -135.01,-106.69 -247.17,-246.68 -285.63,-418.2 -41.63,-188.46 5.49,-380.66 -20.14,-570.08 -22.88,-166.94 -133.66,-371.7 -320.89,-394.95 -34.76,-4.35 -90.63,19.32 -119.47,12.27 -48.98,-11.91 -100.25,-96.54 -103.91,-130.64 -3.62,-33.81 39.82,-98.1 54.02,-127.03 46.23,-95.25 122.22,-201.87 125.88,-311.91 1.87,-58.47 -13.74,-110.28 -50.81,-156.19 -46.19,-57.18 -120.84,-88.66 -172.12,-141.36 -124.95,-128.59 -131.82,-281.38 -71.4,-450.29 63.19,-176.25 185.4,-325 279.69,-485.03 90.67,-153.57 169.82,-313.7 238.49,-478.12 146.49,-351.79 236.65,-720.59 280.14,-1098.73 3.69,-34.68 -50.36,-34.37 -54.47,0l0.03 -0.03z"/>
   <path class="fil13" d="M51666.67 44204.76c-1195.66,77.92 -2287.4,829.65 -2767.12,1931.42 -557.99,1282.87 -359.33,2907.26 -1418.56,3954.87 -25.17,24.6 13.27,62.98 38.45,38.39 946.18,-935.79 901.76,-2345.87 1270.71,-3538.26 400.08,-1292.03 1508.28,-2242.93 2876.49,-2332.1 34.84,-2.24 34.8,-56.53 0,-54.29l0.03 -0.03z"/>
   <path class="fil16" d="M51863.03 44256c-2206.8,-492.93 -4461.69,-1218.62 -6749.52,-1072.5 -36.58,2.3 -38.91,59.96 -1.83,57.59 2282.81,-145.82 4531.72,578 6733.95,1069.98 36.19,7.97 53.56,-46.96 17.4,-55.07z"/>
   <path class="fil16" d="M48795.66 43550.54c-1308.69,50.16 -2593.64,292.39 -3795.68,823.05 -33.83,14.96 -6.41,65.55 27.47,50.63 1192.91,-526.59 2467.72,-766.27 3766.36,-816.07 37.08,-1.43 38.91,-59 1.83,-57.59l0.03 -0.03z"/>
   <path class="fil9" d="M50287.93 26555.35c111.71,-404.98 -191.36,-729.32 -606.56,-815.37 -625.24,-129.65 -1318.31,179.71 -1947.71,255.7 -735.14,88.68 -1399.34,-22.56 -2112.06,-90.91 -665.08,-63.89 -1205.7,152.75 -1793.01,465.07 -44.4,23.76 -3.2,80.29 41.2,56.63 293,-155.75 590.96,-316.31 915.04,-401.96 322.73,-85.28 641.32,-73.56 959.91,-34.64 488.44,59.64 961.72,132.7 1463.88,116.17 524.62,-17.24 1021.7,-124.92 1535.75,-239.31 575.9,-128.12 1690.02,-130.04 1468.01,677.2 -12.34,44.69 63.17,56.08 75.53,11.44l0.03 -0.01z"/>
   <path class="fil9" d="M45145.1 25430.14c525.94,-148.26 911.82,265.53 1387.43,345.18 466.93,78.19 984.63,-2.19 1458.39,-80.06 523.21,-86 1045.96,-208.96 1572.82,-254.46 319.54,-27.64 693.49,-8.06 887.58,238.35 212.9,269.89 16.48,606.71 -198.66,847.44 -32.5,36.4 23.8,80.71 56.76,43.99 260.93,-291.86 460.96,-705.76 151.06,-994.77 -390.89,-364.61 -1116.46,-189.65 -1625.02,-101.17 -702.61,122.22 -1447.4,311.92 -2153.25,247.09 -545.64,-50.1 -972.71,-522.42 -1559.09,-357.18 -48.98,13.75 -26.55,79.42 21.97,65.64l0.01 -0.04z"/>
  </g>
 </g>
</svg>
