<?xml version="1.0" encoding="UTF-8"?>
<!DOCTYPE svg PUBLIC "-//W3C//DTD SVG 1.0//EN" "http://www.w3.org/TR/2001/REC-SVG-20010904/DTD/svg10.dtd">
<!-- Creator: CorelDRAW 2019 (64-Bit Evaluation Version) -->
<svg xmlns="http://www.w3.org/2000/svg" xml:space="preserve" width="317px" height="67px" version="1.0" style="shape-rendering:geometricPrecision; text-rendering:geometricPrecision; image-rendering:optimizeQuality; fill-rule:evenodd; clip-rule:evenodd"
viewBox="0 0 34.63 7.32"
 xmlns:xlink="http://www.w3.org/1999/xlink">
 <defs>
  <style type="text/css">
   <![CDATA[
    .fil0 {fill:none}
    .fil1 {fill:white;fill-rule:nonzero}
   ]]>
  </style>
 </defs>
 <g id="Layer_x0020_1">
  <metadata id="CorelCorpID_0Corel-Layer"/>
  <rect class="fil0" width="34.63" height="7.32"/>
  <path class="fil1" d="M2.51 1.98c0.01,-0.04 0.04,-0.06 0.07,-0.06l2.25 0c0.02,0 0.03,0 0.04,0.02l0.37 0.58 -0.4 1.17 -0.78 0.58c-0.01,0.01 -0.03,0.02 -0.04,0.02l-1.07 0 -0.36 1.05c-0.01,0.04 -0.04,0.06 -0.08,0.06l-1.12 0c-0.04,0 -0.06,-0.02 -0.04,-0.06l1.16 -3.36zm0.68 1.62l0.44 0 0.34 -1 -0.44 0 -0.34 1z"/>
  <path id="1" class="fil1" d="M5.07 5.4c-0.01,0 -0.02,0 -0.03,-0.02l-0.37 -0.57 0.41 -1.19 0.77 -0.57c0.01,-0.01 0.02,-0.02 0.04,-0.02l2.21 0c0.04,0 0.05,0.02 0.04,0.06l-0.78 2.25c-0.01,0.04 -0.04,0.06 -0.08,0.06l-2.21 0zm1.64 -1.7l-0.44 0 -0.35 1.03 0.43 0 0.36 -1.03z"/>
  <path id="2" class="fil1" d="M10.54 5.34c-0.01,0.04 -0.04,0.06 -0.08,0.06l-1.1 0c-0.04,0 -0.05,-0.02 -0.04,-0.06l0.32 -0.93 -0.43 0 -0.32 0.93c-0.02,0.04 -0.05,0.06 -0.08,0.06l-1.11 0c-0.03,0 -0.05,-0.02 -0.04,-0.06l0.34 -0.98c0.01,-0.02 0.03,-0.04 0.06,-0.05l0.53 -0.24 -0.37 -0.24c-0.02,-0.02 -0.03,-0.03 -0.02,-0.05l0.24 -0.69c0.01,-0.04 0.04,-0.06 0.08,-0.06l1.1 0c0.04,0 0.05,0.02 0.04,0.06l-0.22 0.64 0.43 0 0.23 -0.64c0.01,-0.04 0.03,-0.06 0.07,-0.06l1.11 0c0.03,0 0.05,0.02 0.04,0.06l-0.24 0.69c-0.01,0.03 -0.02,0.04 -0.05,0.05l-0.55 0.24 0.39 0.24c0.01,0.02 0.02,0.04 0.01,0.05l-0.34 0.98z"/>
  <path id="3" class="fil1" d="M11.43 5.4c-0.01,0 -0.03,0 -0.04,-0.02l-0.37 -0.58 0.78 -2.28 0.79 -0.58c0.01,-0.02 0.02,-0.02 0.04,-0.02l1.69 0c0.01,0 0.02,0 0.03,0.02l0.37 0.58 -0.78 2.28 -0.78 0.58c-0.01,0.02 -0.03,0.02 -0.04,0.02l-1.69 0zm2.02 -2.8l-0.43 0 -0.73 2.12 0.44 0 0.72 -2.12z"/>
  <path id="4" class="fil1" d="M17.08 3.03c0.02,0 0.03,0.01 0.04,0.02l0.37 0.57 -0.59 1.72c-0.02,0.04 -0.05,0.06 -0.09,0.06l-1.1 0c-0.03,0 -0.05,-0.02 -0.04,-0.06l0.57 -1.64 -0.44 0 -0.56 1.64c-0.02,0.04 -0.04,0.06 -0.08,0.06l-1.11 0c-0.03,0 -0.04,-0.02 -0.03,-0.06l0.77 -2.25c0.01,-0.04 0.04,-0.06 0.08,-0.06l2.21 0z"/>
  <path id="5" class="fil1" d="M17.22 5.4c-0.04,0 -0.05,-0.02 -0.04,-0.06l1.17 -3.36c0.01,-0.04 0.03,-0.06 0.07,-0.06l2.25 0c0.01,0 0.02,0 0.03,0.02l0.38 0.58 -0.2 0.57c0,0 -0.01,0.01 -0.01,0.02 -0.01,0.01 -0.02,0.02 -0.02,0.02l-0.62 0.46 0.43 0c0.03,0 0.04,0.02 0.03,0.06l-0.39 1.15 -0.79 0.58c-0.01,0.02 -0.02,0.02 -0.04,0.02l-2.25 0zm1.77 -1.69l-0.35 1.01 0.44 0 0.35 -1.01 -0.44 0zm0.23 -0.68l0.44 0 0.15 -0.43 -0.44 0 -0.15 0.43z"/>
  <path id="6" class="fil1" d="M20.96 5.4c-0.01,0 -0.02,0 -0.03,-0.02l-0.37 -0.57 0.4 -1.19 0.77 -0.57c0.01,-0.01 0.03,-0.02 0.04,-0.02l1.66 0c0.02,0 0.03,0.01 0.04,0.02l0.37 0.57 -0.41 1.19 -0.76 0.57c-0.02,0.02 -0.03,0.02 -0.05,0.02l-1.66 0zm1.63 -1.7l-0.43 0 -0.35 1.03 0.43 0 0.35 -1.03z"/>
  <path id="7" class="fil1" d="M24.14 5.4c-0.02,0 -0.03,0 -0.04,-0.02l-0.37 -0.57 0.41 -1.19 0.77 -0.57c0.01,-0.01 0.03,-0.02 0.04,-0.02l2.21 0c0.04,0 0.05,0.02 0.04,0.06l-0.77 2.25c-0.02,0.04 -0.05,0.06 -0.08,0.06l-2.21 0zm1.63 -1.7l-0.43 0 -0.36 1.03 0.44 0 0.35 -1.03z"/>
  <path id="8" class="fil1" d="M28.12 3.03c-0.02,0 -0.03,0.01 -0.04,0.02l-0.77 0.57 -0.59 1.72c-0.01,0.04 0,0.06 0.04,0.06l1.1 0c0.04,0 0.07,-0.02 0.08,-0.06l0.56 -1.64 1.04 0c0.02,0 0.03,0 0.05,-0.01 0.01,-0.02 0.03,-0.03 0.03,-0.05l0.19 -0.55c0.01,-0.04 0,-0.06 -0.04,-0.06l-1.65 0z"/>
  <path id="9" class="fil1" d="M32.14 1.97c-0.04,0 -0.07,0.02 -0.08,0.06l-0.34 1 -1.05 0c-0.02,0 -0.03,0.01 -0.04,0.02l-0.77 0.57 -0.41 1.19 0.37 0.57c0.01,0.02 0.02,0.02 0.03,0.02l2.21 0c0.04,0 0.07,-0.02 0.08,-0.06l1.15 -3.31c0.01,-0.04 0,-0.06 -0.05,-0.06l-1.1 0zm-1.09 1.73l0.44 0 -0.36 1.03 -0.43 0 0.35 -1.03z"/>
 </g>
</svg>
