<svg viewBox="0 0 80.85 8.82">
    <path d="M170.35,313.34a.18.18,0,0,1,.19-.16h5.69a.1.1,0,0,1,.08.05l.95,1.47-1,3-2,1.46a.16.16,0,0,1-.11.05h-2.68l-.93,2.66a.19.19,0,0,1-.2.16H167.5c-.09,0-.12-.05-.09-.16Zm1.73,4.11h1.1l.86-2.54h-1.1Z" transform="translate(-167.4 -313.18)"/><path class="cls-1" d="M176.84,322a.1.1,0,0,1-.08-.05l-.94-1.45,1-3,2-1.45a.14.14,0,0,1,.1-.05h5.6c.09,0,.13.05.1.14l-2,5.72a.22.22,0,0,1-.21.14Zm4.13-4.3h-1.09l-.89,2.6h1.09Z" transform="translate(-167.4 -313.18)"/><path class="cls-1" d="M190.68,321.86a.22.22,0,0,1-.21.14h-2.79c-.09,0-.12-.05-.1-.14l.82-2.38h-1.1l-.81,2.38a.22.22,0,0,1-.21.14h-2.79c-.09,0-.12-.05-.1-.14l.87-2.5c0-.06.06-.1.13-.13l1.34-.59-.93-.61c-.05,0-.06-.09,0-.13l.6-1.76a.18.18,0,0,1,.19-.14h2.8c.09,0,.13.05.11.14l-.57,1.64H189l.57-1.64a.18.18,0,0,1,.19-.14h2.8c.09,0,.13.05.1.14l-.6,1.76a.21.21,0,0,1-.13.13l-1.38.61,1,.59a.15.15,0,0,1,0,.13Z" transform="translate(-167.4 -313.18)"/><path class="cls-1" d="M192.92,322a.1.1,0,0,1-.08-.05l-1-1.47,2-5.78,2-1.47a.16.16,0,0,1,.11-.05h4.27a.1.1,0,0,1,.08.05l.95,1.47-2,5.78-2,1.47a.16.16,0,0,1-.11.05Zm5.12-7.09h-1.1l-1.84,5.36h1.11Z" transform="translate(-167.4 -313.18)"/><path class="cls-1" d="M207.22,316a.12.12,0,0,1,.1.05l.94,1.45-1.5,4.36a.22.22,0,0,1-.21.14h-2.79c-.09,0-.12-.05-.1-.14l1.43-4.16H204l-1.43,4.16a.22.22,0,0,1-.21.14h-2.79c-.09,0-.12-.05-.1-.14l2-5.72a.18.18,0,0,1,.19-.14Z" transform="translate(-167.4 -313.18)"/><path class="cls-1" d="M207.58,322c-.09,0-.12-.05-.09-.16l2.94-8.5a.18.18,0,0,1,.19-.16h5.69a.1.1,0,0,1,.08.05l1,1.47-.49,1.44a.21.21,0,0,1,0,.06l-.05.05-1.56,1.17h1.07q.14,0,.09.15l-1,2.91-2,1.47a.16.16,0,0,1-.11.05Zm4.48-4.27-.88,2.54h1.11l.87-2.54Zm.59-1.73h1.1l.37-1.09H213Z" transform="translate(-167.4 -313.18)"/><path class="cls-1" d="M217,322A.1.1,0,0,1,217,322L216,320.5l1-3,1.95-1.45a.14.14,0,0,1,.1-.05h4.2a.12.12,0,0,1,.1.05l.94,1.45-1,3L221.36,322a.17.17,0,0,1-.12.05Zm4.13-4.3h-1.09l-.89,2.6h1.09Z" transform="translate(-167.4 -313.18)"/><path class="cls-1" d="M225.08,322A.1.1,0,0,1,225,322l-.94-1.45,1-3,1.95-1.45a.14.14,0,0,1,.1-.05h5.6c.09,0,.13.05.1.14l-2,5.72a.22.22,0,0,1-.21.14Zm4.13-4.3h-1.09l-.89,2.6h1.09Z" transform="translate(-167.4 -313.18)"/><path class="cls-1" d="M239.35,316c.09,0,.12.05.09.14l-.48,1.41a.26.26,0,0,1-.08.11.19.19,0,0,1-.12,0h-2.63l-1.43,4.16a.17.17,0,0,1-.19.14h-2.79c-.09,0-.12-.05-.1-.14l1.5-4.36,1.93-1.45a.17.17,0,0,1,.12-.05Z" transform="translate(-167.4 -313.18)"/><path class="cls-1" d="M248.13,313.32c.11,0,.14.05.11.15l-2.89,8.39a.22.22,0,0,1-.21.14h-5.59a.1.1,0,0,1-.08-.05l-.94-1.45,1-3,1.95-1.45a.16.16,0,0,1,.11-.05h2.65l.87-2.53a.19.19,0,0,1,.2-.15Zm-6.43,7h1.09l.89-2.6h-1.09Z" transform="translate(-167.4 -313.18)"/>
</svg>